# Alias OBJ Model File
# Exported from SketchUp, (c) 2000-2012 Trimble Navigation Limited
# File units = meters

mtllib Untitled.mtl

g Mesh1 Water_TAG_NoCollision Model

usemtl _15
v 422.9 315.13 1196.24
vt 0.813269 -2.30047
vn 0 1 -0
v -1466.76 315.13 -693.416
vt -2.82069 1.33349
v -1466.76 315.13 1196.24
vt -2.82069 -2.30047
f 1/1/1 2/2/1 3/3/1

v 422.9 315.13 -693.416
vt 0.813269 1.33349
f 2/2/1 1/1/1 4/4/1

g Mesh2 Grass_TAG_Grass Model

usemtl _1
v -1097.93 330.684 450.869
vt -1.71206 -2.2336
vn 2.6922e-17 1 1.04593e-16
v -1648.09 330.684 -36.4093
vt -3.43231 -2.40966
v -1802.87 330.684 148.81
vt -3.35827 -2.97277
f 5/5/2 6/6/2 7/7/2

v -1030.27 330.684 -312.264
vt -2.92547 -0.900481
f 6/6/2 5/5/2 8/8/2

v -982.697 330.684 56.5906
vt -2.21106 -1.40585
f 8/8/2 5/5/2 9/9/2

v -770.683 330.684 372.454
vt -1.32639 -1.54208
f 9/9/2 5/5/2 10/10/2

v -392.993 330.684 752.929
vt -0.0658578 -1.49443
f 10/10/2 5/5/2 11/11/2

vn 0.0357472 0.995873 -0.0834263
v -630.08 358.343 981.509
vt -0.0466758 -2.27182
f 11/11/3 5/5/3 12/12/3

vt -0.0466223 -2.26941
vn -0.0156549 0.999145 -0.0382767
v -1259.16 358.343 1238.8
vt -0.603388 -3.76856
f 12/13/4 5/5/4 13/14/4

vn -0.0217578 0.998982 -0.0395198
v -1786.48 330.684 829.95
vt -2.15288 -4.02971
f 5/5/5 14/15/5 13/14/5

vn 1.32448e-16 1 -3.18866e-18
f 5/5/6 7/7/6 14/15/6

v -523.721 330.684 544.216
vt -0.635505 -1.3882
f 10/10/2 11/11/2 15/16/2

v -393.891 330.684 544.216
vt -0.428633 -1.16343
f 15/16/2 11/11/2 16/17/2

g Mesh3 Tree_TAG_PlankWood Model

usemtl _7
v -1227.32 361.639 214.034
vt 2.39664 -1.29092
v -1230.13 361.639 156.8
vt 2.95491 -1.94854
v -1266.16 361.639 205.494
vt 2.93865 -1.03677
f 17/18/1 18/19/1 19/20/1

v -1181.44 361.639 192.832
vt 2.04314 -1.96483
f 18/19/1 17/18/1 20/21/1

usemtl _14
vt 14.2371 -0.032004
vn 0.349002 0.554653 0.755352
v -1212.47 330.684 229.901
vt 14.1287 -0.370373
vt 14.6557 -0.256032
f 17/22/7 21/23/7 20/24/7

vt 5.61743 10.6445
vn 0.53381 0.574287 0.620678
v -1230.91 330.684 245.757
vt 5.70253 10.2983
vt 5.83903 10.4375
f 17/25/8 22/26/8 21/27/8

vn 0.150591 0.699007 0.699079
v -1258.36 343.326 239.031
vt 5.45652 10.3318
f 17/25/9 23/28/9 22/26/9

vn -0.109022 0.861562 0.495808
vt 5.30127 10.6033
f 17/25/10 19/29/10 23/28/10

v -1285.54 330.684 205.018
vt 5.09812 10.3924
vn -0.765791 0.472604 0.436131
f 24/30/11 23/28/11 19/29/11

vn -0.508312 0.856697 0.0876838
v -1273.27 330.684 276.123
vt 5.52594 10.0029
f 23/28/12 24/30/12 25/31/12

vn 0.295682 0.86164 0.41249
vt 5.41111 9.99875
f 22/26/13 23/28/13 25/32/13

v -1308.11 339.533 156.997
vt 4.59258 10.2118
vn -0.762169 0.4702 0.444983
vt 4.94124 10.3644
vt 4.86057 10.6099
f 26/33/14 24/34/14 19/35/14

vn -0.338322 0.884224 0.322003
v -1333.22 330.684 154.922
vt 4.59081 10.023
f 24/34/15 26/33/15 27/36/15

v -1292.38 331.114 117.653
vt 5.86953 11.1711
vn -0.293068 0.904209 -0.310673
vt 6.71507 11.1702
vt 6.45221 11.4826
f 28/37/16 27/38/16 26/39/16

v -1285.28 361.639 164.112
vt 6.25145 11.9384
vn -0.577283 0.720129 -0.384914
f 29/40/17 28/37/17 26/39/17

vn -0.900481 0.413684 -0.134164
v -1278.82 361.639 120.768
vt 5.65317 11.6363
f 28/37/18 29/40/18 30/41/18

usemtl _7
vt 4.03112 -1.98293
vt 4.92662 -1.05488
vt 4.3499 -1.3752
f 19/42/1 30/43/1 29/44/1

vt 4.94287 -1.96664
f 30/43/1 19/42/1 18/45/1

vt 4.96252 -1.95426
v -1241.7 361.639 97.6392
vt 4.28199 -1.35398
vt 4.05077 -1.97055
f 18/46/1 31/47/1 30/48/1

v -1194.1 361.639 108.106
vt 4.94627 -1.0425
f 31/47/1 18/46/1 32/49/1

vt 1.95334 -0.0395915
vt 1.05783 -0.967661
vt 1.96961 -0.951372
f 20/50/1 32/51/1 18/52/1

v -1173.21 361.639 155.407
vt 1.43105 -0.284494
f 32/51/1 20/50/1 33/53/1

usemtl _14
v -1165.23 353.439 158.24
vt 14.9299 -0.150922
vn 0.682388 0.715425 0.150049
vt 14.8766 -0.053948
vt 14.578 -0.255014
f 34/54/19 33/55/19 20/56/19

v -1171.95 353.439 128.655
vt 63.3978 0.767772
vn 0.735059 0.657114 -0.167001
vt 63.2296 1.02962
vt 63.1197 0.958374
f 35/57/20 33/58/20 34/59/20

vn 0.517447 0.824633 -0.228537
vt 63.7455 0.776701
f 35/57/21 32/60/21 33/58/21

v -1206.59 331.114 88.1913
vt 63.9925 0.695879
vn 0.702954 0.163953 -0.69208
vt 63.6512 0.954384
vt 63.3553 0.771683
f 36/61/22 32/62/22 35/63/22

vt 4.27664 11.8509
vn 0.188228 0.481462 -0.856017
vt 4.34887 11.2661
vt 4.98445 11.6172
f 32/64/23 36/65/23 31/66/23

vn -0.0368472 0.256549 -0.965829
v -1280.37 331.114 91.0062
vt 5.45014 11.0163
f 31/66/24 36/65/24 37/67/24

vn -0.402036 0.649535 -0.645346
f 31/66/25 37/67/25 30/41/25

vn -0.832279 0.407994 -0.375302
f 37/67/26 28/37/26 30/41/26

v -1156.38 343.326 117.338
vt 63.3545 0.530023
vn 0.125475 0.819324 -0.559432
f 38/68/27 36/61/27 35/63/27

v -1116.59 330.684 92.7428
vt 63.2749 -0.00242135
vn 0.0257502 0.905427 -0.42372
f 39/69/28 36/61/28 38/68/28

vn 0.409355 0.888991 0.205238
v -1149.6 330.684 158.578
vt 62.9132 0.731566
f 39/69/29 38/68/29 40/70/29

vn 0.608487 0.78121 0.139478
f 40/70/30 38/68/30 35/57/30

vn 0.811372 0.554703 -0.184339
f 35/57/31 34/59/31 40/70/31

vn 0.797847 0.551745 0.242934
vt 15.0962 -0.349975
f 34/54/32 20/56/32 40/71/32

vn 0.697005 0.717066 -0.000188134
v -1163.89 344.59 209.79
vt 14.6132 -0.532399
f 40/71/33 20/56/33 41/72/33

vn 0.067109 0.737491 0.672014
f 41/72/34 20/24/34 21/23/34

v -1127.14 330.684 240.33
vt 14.6352 -0.999391
vn -0.0574542 0.880714 0.470152
f 42/73/35 41/72/35 21/23/35

vn 0.437022 0.891399 -0.120079
f 42/73/36 40/71/36 41/72/36

vn -0.707961 0.625934 0.327105
vt 4.97398 10.503
vt 4.65932 10.4324
f 26/33/37 19/74/37 29/75/37

g Mesh4 Cliffs_TAG_Steep Model

usemtl _12
v -622.766 330.684 -351.839
vt -5.02232 -0.56982
vn -0.813006 0.312447 0.491322
v -396.132 330.684 23.1789
vt -4.15857 -0.660944
v -354.513 600.6 -79.6002
vt -4.23044 -0.0870163
f 43/76/38 44/77/38 45/78/38

vn -0.430343 0.86439 0.260068
v -503.354 245.464 129.002
vt -4.1246 -1.00234
f 43/76/39 46/79/39 44/77/39

v -670.639 245.464 -147.81
vt -4.76216 -0.935077
f 46/79/39 43/76/39 47/80/39

vt 4.73757 -0.464516
vn 0.0381415 0.918857 0.392743
v -868.7 245.464 -128.576
vt 4.40851 -0.788821
vt 4.67536 -0.762901
f 43/81/40 48/82/40 47/83/40

vt 4.18855 -0.517846
f 48/82/40 43/81/40 8/84/40

v -581.147 582.374 -475.349
vt 4.77286 -0.0842868
vn 0.0873981 0.427167 0.899939
f 49/85/41 8/84/41 43/81/41

v -1030.27 623.984 -502.384
vt 4.1652 -0.047512
vn -0.000118925 0.543932 0.839129
f 50/86/42 8/84/42 49/85/42

v -1648.09 638.294 -201.032
vt 3.29177 -0.0402924
vn 0.388719 0.501155 0.773137
vt 4.10337 -0.518177
vt 4.21785 -0.0613909
f 51/87/43 8/88/43 50/89/43

vn 0.366306 0.43905 0.820399
vt 3.19198 -0.49963
f 51/87/44 6/90/44 8/88/44

vt 3.15526 -0.0690415
vn 0.831525 0.262105 0.489763
v -1925.61 544.459 320.357
vt 2.34973 -0.0875614
vt 2.90596 -0.467542
f 51/91/45 52/92/45 6/93/45

vn 0.765236 -0.0738439 0.6395
vt 2.58472 -0.41694
f 6/93/46 52/92/46 7/94/46

vt 3.27191 -0.459014
vn 0.76613 0.607695 -0.209169
vt 3.06489 -0.030425
v -1786.48 544.459 829.95
vt 2.22771 -0.0225478
f 7/95/47 52/96/47 53/97/47

vn 0.99971 7.35961e-18 -0.0240679
vt 2.19662 -0.359929
f 7/95/48 53/97/48 14/98/48

v -1259.16 544.459 1238.8
vt 1.11763 -0.0974337
vn 0.612737 -3.1063e-16 -0.790287
vt 2.17245 -0.0219819
f 54/99/49 14/98/49 53/100/49

vn 0.612737 -2.04908e-16 -0.790287
vt 1.13868 -0.391656
f 54/99/50 13/101/50 14/98/50

v -516.175 603.577 934.923
vt -2.167 -0.0817689
vn -0.378554 0 -0.925579
vt -0.541536 -0.436567
vt -0.571604 -0.0688788
f 55/102/51 13/103/51 54/104/51

vt -1.88426 -0.546368
f 13/103/51 55/102/51 12/105/51

vt -2.16261 -0.0783757
vn -0.672554 0.175825 -0.718858
vt -2.60974 -0.609815
vt -1.95528 -0.581174
f 55/106/52 11/107/52 12/108/52

v -279.088 603.577 339.355
vt -3.43222 -0.0274513
vn -0.915532 -0.170206 -0.36446
f 56/109/53 11/107/53 55/106/53

vn -0.920682 0.390292 0.00396082
vt -3.02344 -0.612413
f 56/109/54 16/110/54 11/107/54

vt -4.05622 -0.618901
f 16/110/54 56/109/54 44/111/54

vt -4.27419 -0.0831318
vn -0.961719 0.213641 0.17162
f 45/112/55 44/111/55 56/109/55

vn -0.620593 0.784129 0.00266982
v -501.921 245.464 462.013
vt -3.18559 -0.885628
f 44/111/56 57/113/56 16/110/56

vt -3.84567 -0.889775
f 57/113/56 44/111/56 46/114/56

vt -5.13256 -0.018926
vn -0.817621 0.356905 0.451791
f 49/115/57 43/76/57 45/78/57

g Mesh5 Model

usemtl _1
vt 2.56382 0.307417
vn 0.642697 0.765847 -0.0204573
v -2111.2 810.349 582.167
vt 3.51847 -0.327994
v -1988.7 720.105 1052.35
vt 3.22122 0.796175
f 53/116/58 58/117/58 59/118/58

vt 2.9301 -0.698337
vn 0.705462 0.682076 -0.192605
vt 3.71157 -0.105975
vt 2.75916 0.532779
f 52/119/59 58/120/59 53/121/59

v -1855 810.349 -132.556
vt 3.37963 -1.86135
vn 0.895302 0.308924 0.320937
f 60/122/60 58/120/60 52/119/60

vt 2.77002 -2.09638
vn 0.653324 0.604007 0.456446
f 51/123/61 60/122/61 52/119/61

v -1592.27 810.349 -500.895
vt 4.60604 -2.78732
vn 0.651945 0.598938 0.465017
vt 4.84234 -1.74932
vt 4.25754 -2.04065
f 61/124/62 60/125/62 51/126/62

v -1030.27 623.984 -502.384
vt -4.24044 2.38577
vn 0.270752 0.81235 0.516509
vt -5.53249 2.90686
vt -5.83977 2.14231
f 62/127/63 61/128/63 51/129/63

v -867.39 810.349 -618.563
vt -4.03843 2.80433
vn 0.144716 0.429279 0.891502
vt -5.76129 2.67217
vt -4.42215 2.28795
f 63/130/64 61/131/64 62/132/64

vt -3.84183 2.80334
vn -0.0307012 0.547955 0.835944
vt -4.24649 2.30319
v -512.096 699.854 -533.086
vt -3.01986 2.44102
f 63/133/65 62/134/65 64/135/65

vn -0.0124393 0.44692 0.894488
v -581.147 582.374 -475.349
vt -3.19582 2.14052
f 64/135/66 62/134/66 65/136/66

vt -2.74164 -0.107051
vn -0.655821 0.606431 0.449599
vt -2.47218 -0.327622
v -188.79 699.854 -61.4866
vt -1.83057 0.882876
f 64/137/67 65/138/67 66/139/67

vn -0.516988 0.816033 0.258483
v -354.513 600.6 -79.6002
vt -1.72088 0.439736
f 66/139/68 65/138/68 67/140/68

vn -0.513812 0.857903 -0
v -188.79 699.854 271.843
vt -1.09016 1.14158
f 66/139/69 67/140/69 68/141/69

vn -0.681844 0.721979 0.117622
vt -0.833829 0.904968
f 68/141/70 67/140/70 56/142/70

vn -0.770922 0.619617 -0.147496
v -232.799 745.23 692.483
vt -0.155335 1.49908
f 68/141/71 56/142/71 69/143/71

vn -0.441791 0.851141 -0.283512
v -581.442 714.53 1143.6
vt 1.16998 1.27911
f 69/143/72 56/142/72 70/144/72

vn -0.918931 0.147467 -0.365814
vt 0.672204 0.987486
f 56/142/73 55/145/73 70/144/73

vt -0.674167 1.88129
vn -0.245425 0.822036 -0.513831
v -1217.71 714.53 1447.5
vt 1.34593 2.28952
vt -0.31265 2.33088
f 55/146/74 71/147/74 70/148/74

vn -0.293543 0.768783 -0.56816
vt 1.20718 1.66378
f 55/146/75 54/149/75 71/147/75

vn 0.4737 0.634299 -0.610961
vt 2.24459 0.485364
f 71/147/76 54/149/76 53/150/76

vt 1.7702 2.27529
vn 0.240598 0.856116 -0.45736
vt 2.45384 0.379188
vt 3.16393 0.78763
f 71/151/77 53/152/77 59/153/77

g Mesh6 Model

usemtl _12
v -2429.89 1077.97 -1073.45
vt -15.1021 -1.08294
vn -0.565784 0.378796 0.732394
v -3155.37 555.92 -1363.89
vt -16.0714 -1.9123
v -2575.98 565.609 -921.313
vt -15.0847 -1.83484
f 72/154/78 73/155/78 74/156/78

v -2927.16 1124.53 -1597.98
vt -16.0834 -1.02206
vn -0.606613 0.498434 0.619341
f 75/157/79 73/155/79 72/154/79

vt -15.056 -1.74111
vn -0.00908644 0.287017 0.957882
v -2334.69 973.454 -1041.23
vt -14.6836 -1.23374
vt -14.789 -1.07961
f 74/158/80 76/159/80 72/160/80

v -1974.25 577.736 -919.239
vt -14.2849 -1.81732
f 76/159/80 74/158/80 77/161/80

v -2062.63 1085.75 -1157.13
vt -14.304 -1.08645
vn 0.190198 0.443283 0.875971
f 78/162/81 76/159/81 77/161/81

f 76/159/81 78/162/81 72/160/81

vn 0.552436 0.430385 0.713851
v -1609.26 586.397 -1206.93
vt -13.6961 -1.70992
f 78/162/82 77/161/82 79/163/82

v -1822.2 1091.51 -1359.41
vt -13.907 -1.00836
vn 0.569224 0.44807 0.68936
f 80/164/83 78/162/83 79/163/83

vn 0.475448 0.431816 0.766475
vt -13.8318 -1.73704
v -951.451 622.029 -1635.04
vt -12.8206 -1.76199
f 80/164/84 79/165/84 81/166/84

v -690.575 1205.26 -1595.51
vt -12.412 -1.04629
vn 0.217141 -0.162369 0.962541
f 82/167/85 80/164/85 81/166/85

vt -13.2118 0.151448
vn -0.903204 0.392179 0.174409
v -776.047 621.46 -725.4
vt -11.9603 0.0293168
vt -13.0096 0.996507
f 81/168/86 83/169/86 82/170/86

v -438.324 1147.95 -1094.41
vt -12.2444 0.973284
vn -0.624811 0.675375 0.391765
f 84/171/87 82/170/87 83/169/87

v -212.902 1142.2 -710.371
vt -11.4451 0.937422
vn -0.633004 0.673537 0.381645
vt -12.0482 0.979816
vt -11.9071 0.00415399
f 85/172/88 84/173/88 83/174/88

vn -0.525271 0.549289 0.649902
v -155.848 631.746 -232.83
vt -10.849 0.195149
f 85/172/89 83/174/89 86/175/89

v 251.746 1150.33 -435.096
vt -10.4755 0.96637
vn -0.417122 0.595603 0.686488
vt -11.2087 0.968803
vt -10.825 0.0975407
f 87/176/90 85/177/90 86/178/90

vn -0.0106709 0.370622 0.928722
v 388.813 642.724 -230.953
vt -10.1117 0.292688
f 87/176/91 86/178/91 88/179/91

vn 0.41051 0.433481 0.802232
v 803.57 652.07 -448.239
vt -9.54376 0.578192
f 87/176/92 88/179/92 89/180/92

v 805.143 654.218 -917.084
vt -9.17097 0.710692
vn 0.670229 0.742133 0.00564867
vt -9.76595 0.908658
vt -9.43011 0.503338
f 90/181/93 87/182/93 89/183/93

g Mesh7 Model

usemtl _17
v -501.824 1020.66 -640.684
vt 2.43806 0.980458
vn 0.694484 0.0107601 0.719428
v -493.555 610.731 -642.535
vt 2.43806 -0.00491232
v -262.118 616.408 -866.032
vt 3.2114 -0.00491232
f 91/184/94 92/185/94 93/186/94

v -795.642 1015.25 -755.916
vt 1.67946 0.980458
vn -0.364904 -0.0115627 0.930973
f 94/187/95 92/185/95 91/184/95

v -787.374 605.325 -757.767
vt 1.67946 -0.00491232
f 92/185/95 94/187/95 95/188/95

vn -0.521121 -0.0143632 0.853362
v -1095.59 1010.03 -939.173
vt 0.834621 0.980458
f 94/187/96 96/189/96 95/188/96

v -1087.32 600.103 -941.023
vt 0.834621 -0.00491232
f 96/189/96 97/190/96 95/188/96

v -1443.74 1003.29 -1003.13
vt -0.016239 0.980458
vn -0.18051 -0.00808073 0.98354
f 98/191/97 97/190/97 96/189/97

v -1435.48 593.369 -1004.98
vt -0.016239 -0.00491232
f 97/190/97 98/191/97 99/192/97

v -1802.18 995.523 -883.15
vt -0.924819 0.980458
vn 0.317369 0.00212055 0.9483
f 100/193/98 99/192/98 98/191/98

v -1793.91 585.598 -885.001
vt -0.924819 -0.00491232
f 99/192/98 100/193/98 101/194/98

vn -0.284183 -0.0100598 0.958717
v -2327 592.065 -1042.95
vt -2.26053 0.0347496
f 100/193/99 102/195/99 101/194/99

vt -2.26053 0.951525
f 100/193/99 76/196/99 102/195/99

v -2334.93 985.059 -1041.18
vt -2.26053 0.97942
f 76/196/99 100/193/99 103/197/99

v -270.387 1026.33 -864.181
vt 3.2114 0.980458
f 104/198/94 91/184/94 93/186/94

g Mesh8 Model

usemtl _12
v -1874.61 1306.04 3145
vt -12.931 0.901548
vn 0.706972 0.413102 0.574054
v -2089.57 574.34 3936.27
vt -13.8597 0.564129
v -1500.41 574.34 3210.7
vt -13.1111 0.182453
f 105/199/100 106/200/100 107/201/100

v -1669.12 579.414 1881.25
vt -11.9128 0.0558273
vn 0.888825 0.444576 -0.111095
f 108/202/101 105/199/101 107/201/101

vn 0.684563 0.674479 -0.276498
v -2203.31 1329.12 2387.49
vt -12.1905 0.958676
f 108/202/102 109/203/102 105/199/102

vn 0.645099 0.686376 -0.335761
v -2492.9 1319.81 1812.07
f 108/174/103 110/172/103 109/173/103

vn 0.556852 0.562458 -0.611193
v -2518.83 585.405 1112.59
f 110/172/104 108/174/104 111/175/104

v -3138.21 1323.89 1371.55
vn 0.450532 0.607323 -0.654355
f 112/176/105 110/177/105 111/178/105

vn 0.0641996 0.377742 -0.923682
v -3305.1 588.776 1059.32
f 112/176/106 111/178/106 113/179/106

vt -10.0858 0.990873
vn -0.365203 0.432941 -0.824129
vt -10.0439 0.402456
v -3924.17 590.385 1334.5
vt -9.55448 0.422922
f 112/204/107 113/205/107 114/206/107

vt -9.50132 1.00682
vn -0.680528 0.731405 -0.0439022
vt -9.56612 0.433866
v -3970.02 588.337 2011.19
vt -9.20562 0.386838
f 112/207/108 114/208/108 115/209/108

g Mesh9 Model

v -714.022 780.763 2333.28
vn -0.86641 0.453109 0.209823
v -557.306 847.822 2835.58
v -378.639 1304.2 2587.8
f 116/178/109 117/179/109 118/176/109

vn -0.616845 0.548151 0.564829
v -234.986 879.804 3156.55
f 118/204/110 117/205/110 119/206/110

v 200.592 839.092 3026.09
vn 0.237599 0.806319 0.54166
f 120/209/111 118/207/111 119/208/111

v -258.344 1223.12 2082.29
vn -0.74336 0.609874 -0.274718
f 121/177/112 116/178/112 118/176/112

v -437.317 661.616 1623.33
vn -0.743399 0.549103 -0.381894
f 122/174/113 116/175/113 121/172/113

v 32.9786 1170.18 1765.49
vn -0.512559 0.635421 -0.577515
f 123/173/114 122/174/114 121/172/114

vn -0.472044 0.61349 -0.633091
v 428.075 1081.08 1384.55
f 123/203/115 124/199/115 122/202/115

vn -0.401948 0.34687 -0.847419
v 355.859 560.71 1205.8
f 124/199/116 125/201/116 122/202/116

vn 0.300534 0.272278 -0.914081
v 953.479 560.71 1402.29
f 124/199/117 126/200/117 125/201/117

g Mesh10 Model

usemtl _17
v -597.383 1121.85 2366.57
vt -0.162892 0.968209
vn 0.00215128 -0.258901 -0.965902
v -287.7 738.161 2470.11
vt -0.88053 0.0162757
v -595.04 736.249 2469.93
vt -0.153336 0.0236326
f 127/210/118 128/211/118 129/212/118

v -290.042 1123.76 2366.74
vt -0.890086 0.960852
f 128/211/118 127/210/118 130/213/118

vn 0.175906 -0.253879 -0.951106
v -934.326 1104.35 2308.93
vt 0.646972 0.976402
f 127/210/119 129/212/119 131/214/119

v -931.984 718.75 2412.29
vt 0.656528 0.0318258
f 131/214/119 129/212/119 132/215/119

v -1270.51 733.68 2475.66
vt 1.47216 0.0400777
vn -0.188773 -0.255328 -0.948247
f 133/216/120 131/214/120 132/215/120

v -1272.85 1119.28 2372.3
vt 1.46261 0.984654
f 131/214/120 133/216/120 134/217/120

v -1553.35 793.074 2703.64
vt 2.34313 0.048889
vn -0.639975 -0.202573 -0.741213
f 135/218/121 134/217/121 133/216/121

v -1555.7 1178.68 2600.28
vt 2.33357 0.993465
f 134/217/121 135/218/121 136/219/121

vn -0.0831459 -0.258488 -0.96243
v -2092.73 817.189 2743.76
vt 3.62316 0.0998627
f 136/219/122 135/218/122 137/220/122

v -2094.91 1175.95 2647.6
vt 3.61427 0.978684
f 136/219/122 137/220/122 138/221/122

g Mesh11 Model

usemtl _12
v -841.661 245.464 81.0747
vt -4.3845 -1.73233
vn 2.45795e-16 1 8.56768e-18
vt -4.50074 -1.38528
vt -4.62498 -1.60785
f 139/222/123 47/223/123 48/224/123

v -659.558 245.464 352.376
vt -3.96599 -1.73851
f 47/223/123 139/222/123 140/225/123

vt 4.15492 -1.42245
vn 0.527903 0.771856 -0.35434
vt 3.66083 -1.16357
vt 3.57075 -1.40011
f 139/226/124 10/227/124 140/228/124

vt 4.34096 -1.18958
f 10/227/124 139/226/124 9/229/124

vt 4.56763 -1.50234
vn 0.524556 0.848684 -0.067652
vt 4.20963 -1.21074
vt 4.15098 -1.53483
f 48/230/125 9/231/125 139/232/125

vt 4.94267 -1.15357
f 9/231/125 48/230/125 8/233/125

vt 3.16235 -1.18729
vn 0.416457 0.684121 -0.598784
vt 3.55653 -1.35654
vt 3.67678 -1.1457
f 15/234/126 140/235/126 10/236/126

v -501.921 245.464 462.013
vt 3.22816 -1.38309
f 140/235/126 15/234/126 141/237/126

vn 4.58849e-16 0.694253 -0.719731
vt 2.96755 -1.29532
f 15/234/127 16/238/127 141/237/127

v -503.354 245.464 129.002
vt -4.08723 -1.41108
vt -3.73554 -1.65251
f 142/239/123 140/225/123 141/240/123

f 47/223/123 140/225/123 142/239/123

